<?xml version="1.0" encoding="iso-8859-1"?>
<!-- Generator: Adobe Illustrator 19.0.0, SVG Export Plug-In . SVG Version: 6.00 Build 0)  -->
<svg version="1.1" id="Capa_1" xmlns="http://www.w3.org/2000/svg" xmlns:xlink="http://www.w3.org/1999/xlink" x="0px" y="0px"
	 viewBox="0 0 512.003 512.003" style="enable-background:new 0 0 512.003 512.003;" xml:space="preserve">
<path style="fill:#FFB408;" d="M427.501,504.5c3.314,0,6-2.686,6-6v-485c0-3.314-2.686-6-6-6h-343c-3.314,0-6,2.686-6,6v485
	c0,3.314,2.686,6,6,6H427.501z"/>
<rect x="114.001" y="43" style="fill:#01C7EA;" width="284" height="426"/>
<rect x="378.001" y="43" style="fill:#0091CA;" width="20" height="426"/>
<g>
	<path style="fill:#E89606;" d="M398.002,43v426l33.741,33.743c1.086-1.086,1.757-2.586,1.757-4.243v-485
		c0-1.657-0.672-3.157-1.757-4.243L398.002,43z"/>
	<path style="fill:#E89606;" d="M113.999,469V43L80.258,9.257c-1.086,1.086-1.757,2.586-1.757,4.243v485
		c0,1.657,0.672,3.157,1.757,4.243L113.999,469z"/>
</g>
<path style="fill:#A4724D;" d="M158.377,344.748V167.25c0-49.015,39.734-88.75,88.75-88.75c49.015,0,88.749,39.734,88.749,88.75
	v166.888L158.377,344.748z"/>
<path style="fill:#336870;" d="M149.502,468.997V380.25c0-39.212,31.788-71,71-71v159.747H149.502z"/>
<g>
	<path style="fill:#E2F1F6;" d="M291.5,238.252c0,29.409-23.84,53.249-53.249,53.249s-53.249-23.84-53.249-53.249v-88.751h71
		c0,0-1.249,36.331,35.64,50.254L291.5,238.252z"/>
	<path style="fill:#E2F1F6;" d="M185.002,468.997V344.75c0-19.606,15.894-35.5,35.5-35.5v-45.872h71.139v205.62L185.002,468.997
		L185.002,468.997z"/>
</g>
<rect x="185.001" y="344.75" style="fill:#795F8C;" width="93.19" height="124.25"/>
<path style="fill:#E2F1F6;" d="M220.501,433.5c19.605,0,35.499-15.893,35.499-35.499h-70.998V433.5H220.501z"/>
<path style="fill:#875E3E;" d="M309.251,210.249c-30.958,0-56.582-23.277-60.288-53.248h-63.961c-4.143,0-7.5-3.357-7.5-7.5
	s3.357-7.5,7.5-7.5h71c4.143,0,7.5,3.357,7.5,7.5c0,25.226,20.522,45.748,45.749,45.748c4.143,0,7.5,3.357,7.5,7.5
	S313.394,210.249,309.251,210.249z"/>
<path style="fill:#9DADAD;" d="M229.376,237.405h-8.499c-4.143,0-7.5-3.357-7.5-7.5s3.357-7.5,7.5-7.5h0.999v-28.53
	c0-4.143,3.357-7.5,7.5-7.5h26.625c4.143,0,7.5,3.357,7.5,7.5s-3.357,7.5-7.5,7.5h-19.125v28.53
	C236.876,234.048,233.519,237.405,229.376,237.405z"/>
<g>
	<path style="fill:#875E3E;" d="M291.642,334.499c-4.143,0-7.5-3.357-7.5-7.5V199.756c0-4.143,3.357-7.5,7.5-7.5s7.5,3.357,7.5,7.5
		v127.243C299.142,331.142,295.784,334.499,291.642,334.499z"/>
	<path style="fill:#875E3E;" d="M202.75,157.001c4.143,0,7.5-3.357,7.5-7.5c0-30.815,21.978-57.104,52.257-62.51
		c3.115-0.556,5.429-2.963,6.026-5.885c-6.857-1.698-14.025-2.605-21.407-2.605c-2.572,0-5.117,0.116-7.634,0.33
		c-26.526,12.822-44.243,39.919-44.243,70.67C195.25,153.644,198.607,157.001,202.75,157.001z"/>
</g>
<path style="fill:#2A555C;" d="M256,469.001v-88.752c0-29.41,23.841-53.251,53.251-53.251c29.41,0,53.251,23.841,53.251,53.251
	v88.752L256,469.001L256,469.001z"/>
<path d="M439.516,508.967c0.074-0.1,0.152-0.197,0.221-0.301c0.074-0.111,0.139-0.226,0.207-0.34c0.057-0.096,0.118-0.19,0.171-0.29
	c0.062-0.115,0.114-0.233,0.169-0.351c0.049-0.104,0.101-0.207,0.146-0.314c0.048-0.115,0.086-0.232,0.128-0.349
	c0.041-0.114,0.085-0.227,0.12-0.344c0.036-0.118,0.062-0.238,0.092-0.358c0.029-0.118,0.063-0.234,0.086-0.354
	c0.028-0.141,0.045-0.283,0.065-0.425c0.014-0.1,0.033-0.199,0.043-0.3c0.025-0.249,0.038-0.498,0.038-0.748V7.505
	c0-0.25-0.013-0.499-0.038-0.748c-0.01-0.102-0.029-0.2-0.043-0.3c-0.02-0.142-0.037-0.284-0.065-0.425
	c-0.024-0.12-0.057-0.236-0.086-0.353c-0.03-0.12-0.056-0.24-0.092-0.358c-0.035-0.117-0.079-0.23-0.12-0.344
	c-0.042-0.116-0.08-0.234-0.127-0.348c-0.044-0.107-0.097-0.21-0.146-0.315c-0.055-0.117-0.107-0.235-0.169-0.35
	c-0.055-0.1-0.115-0.194-0.173-0.29c-0.068-0.114-0.132-0.229-0.207-0.34c-0.069-0.104-0.147-0.201-0.221-0.301
	c-0.072-0.096-0.139-0.195-0.216-0.289c-0.131-0.16-0.272-0.312-0.416-0.46c-0.028-0.029-0.051-0.06-0.079-0.088
	c-0.026-0.026-0.056-0.048-0.083-0.074c-0.15-0.146-0.304-0.288-0.467-0.422c-0.086-0.071-0.177-0.133-0.266-0.199
	c-0.107-0.08-0.212-0.164-0.324-0.238c-0.102-0.068-0.208-0.127-0.313-0.19c-0.106-0.063-0.209-0.13-0.319-0.188
	c-0.104-0.055-0.21-0.102-0.315-0.152c-0.116-0.056-0.231-0.114-0.351-0.163c-0.101-0.042-0.204-0.075-0.305-0.112
	c-0.129-0.047-0.256-0.096-0.388-0.136c-0.098-0.03-0.198-0.051-0.298-0.077c-0.137-0.035-0.274-0.073-0.414-0.101
	c-0.108-0.021-0.218-0.033-0.327-0.05c-0.133-0.02-0.264-0.044-0.399-0.057c-0.186-0.018-0.372-0.024-0.558-0.028
	C433.618,0.008,433.561,0,433.501,0h-355c-0.06,0-0.118,0.008-0.178,0.009c-0.186,0.004-0.371,0.01-0.557,0.028
	c-0.133,0.013-0.261,0.037-0.392,0.056c-0.111,0.017-0.223,0.029-0.334,0.051c-0.139,0.027-0.274,0.065-0.41,0.1
	c-0.101,0.026-0.203,0.048-0.303,0.078c-0.131,0.04-0.257,0.088-0.385,0.135c-0.103,0.037-0.207,0.071-0.308,0.113
	c-0.118,0.049-0.232,0.106-0.347,0.161c-0.107,0.051-0.215,0.098-0.32,0.154c-0.108,0.058-0.21,0.123-0.315,0.186
	c-0.106,0.063-0.213,0.123-0.316,0.192c-0.111,0.074-0.215,0.156-0.321,0.236c-0.09,0.067-0.182,0.13-0.269,0.201
	c-0.162,0.133-0.316,0.275-0.466,0.421c-0.027,0.026-0.056,0.048-0.083,0.075c-0.028,0.028-0.052,0.059-0.079,0.088
	c-0.144,0.148-0.285,0.3-0.416,0.46c-0.077,0.094-0.144,0.192-0.216,0.289c-0.074,0.1-0.152,0.197-0.221,0.301
	c-0.074,0.111-0.139,0.226-0.207,0.34c-0.057,0.096-0.117,0.19-0.17,0.289c-0.062,0.115-0.114,0.234-0.17,0.352
	c-0.049,0.104-0.101,0.206-0.145,0.313c-0.048,0.115-0.087,0.233-0.128,0.35c-0.041,0.114-0.084,0.226-0.12,0.342
	c-0.036,0.118-0.062,0.238-0.092,0.358c-0.029,0.118-0.063,0.234-0.086,0.353c-0.028,0.141-0.045,0.283-0.065,0.425
	c-0.014,0.1-0.033,0.199-0.043,0.3c-0.025,0.25-0.038,0.5-0.038,0.749v496.99c0,0.25,0.013,0.499,0.037,0.748
	c0.01,0.102,0.029,0.2,0.043,0.3c0.02,0.142,0.037,0.284,0.065,0.425c0.024,0.12,0.057,0.236,0.086,0.354
	c0.03,0.12,0.056,0.24,0.092,0.358c0.035,0.116,0.079,0.228,0.12,0.342c0.042,0.117,0.081,0.236,0.128,0.351
	c0.044,0.106,0.096,0.208,0.145,0.311c0.055,0.118,0.108,0.237,0.17,0.353c0.053,0.099,0.114,0.193,0.171,0.29
	c0.068,0.114,0.132,0.229,0.207,0.34c0.069,0.104,0.147,0.201,0.221,0.301c0.072,0.097,0.139,0.195,0.216,0.289
	c0.131,0.16,0.272,0.312,0.416,0.46c0.028,0.029,0.051,0.06,0.079,0.088c0.027,0.027,0.057,0.05,0.084,0.076
	c0.15,0.145,0.303,0.287,0.465,0.419c0.089,0.073,0.183,0.137,0.275,0.206c0.104,0.078,0.206,0.159,0.315,0.232
	c0.106,0.071,0.217,0.133,0.325,0.198c0.101,0.061,0.2,0.124,0.305,0.18c0.111,0.059,0.225,0.109,0.338,0.163
	c0.109,0.052,0.216,0.106,0.327,0.152c0.11,0.046,0.223,0.083,0.335,0.123c0.119,0.043,0.237,0.088,0.358,0.125
	c0.111,0.034,0.224,0.058,0.336,0.087c0.125,0.031,0.248,0.066,0.376,0.092c0.13,0.026,0.261,0.041,0.393,0.06
	c0.111,0.016,0.22,0.037,0.332,0.048c0.246,0.024,0.493,0.037,0.74,0.037h355c0.247,0,0.494-0.013,0.74-0.037
	c0.115-0.011,0.226-0.032,0.339-0.049c0.128-0.019,0.257-0.033,0.385-0.059c0.13-0.026,0.257-0.062,0.385-0.094
	c0.109-0.028,0.219-0.052,0.326-0.084c0.125-0.038,0.247-0.085,0.369-0.129c0.108-0.039,0.217-0.074,0.324-0.118
	c0.115-0.048,0.226-0.104,0.338-0.157c0.109-0.052,0.22-0.1,0.327-0.158c0.107-0.057,0.208-0.122,0.312-0.184
	c0.107-0.064,0.215-0.124,0.319-0.194c0.111-0.074,0.214-0.156,0.321-0.236c0.09-0.067,0.182-0.13,0.27-0.202
	c0.162-0.133,0.316-0.275,0.466-0.421c0.027-0.026,0.056-0.048,0.083-0.075c0.028-0.028,0.052-0.059,0.079-0.088
	c0.144-0.148,0.284-0.3,0.416-0.46C439.377,509.162,439.444,509.063,439.516,508.967z M394.894,35.499H117.108L96.609,15h318.784
	L394.894,35.499z M106.501,46.106v419.787l-20.5,20.5V25.607L106.501,46.106z M117.108,476.501h277.785l20.5,20.499H96.609
	L117.108,476.501z M328.376,167.25V322.6c-6.018-2.002-12.444-3.102-19.125-3.102c-3.445,0-6.819,0.303-10.109,0.857V209.392
	c3.29,0.554,6.664,0.857,10.109,0.857c4.143,0,7.5-3.357,7.5-7.5s-3.357-7.5-7.5-7.5c-25.227,0-45.749-20.522-45.749-45.748
	c0-4.143-3.357-7.5-7.5-7.5h-45.299c3.183-27.067,23.38-49.331,50.519-54.751C299.325,93.947,328.376,127.259,328.376,167.25z
	 M355.002,461.501H263.5v-81.252c0-25.228,20.523-45.751,45.751-45.751c25.228,0,45.751,20.523,45.751,45.751V461.501
	L355.002,461.501z M192.502,461.501V441h27.999c10.688,0,20.47-3.929,27.999-10.406v30.907H192.502z M192.502,157.001h56.461
	c2.635,21.305,16.35,39.217,35.179,47.801v32.009c-0.091,0.467-0.142,0.948-0.142,1.441c0,25.227-20.522,45.749-45.749,45.749
	s-45.749-20.522-45.749-45.749V157.001z M228.002,309.25v-11.131c3.334,0.569,6.755,0.882,10.249,0.882
	c18.311,0,34.743-8.155,45.891-21.011v46.962c-6.643,3.029-12.656,7.206-17.763,12.298h-72.848c3.288-11.808,14.13-20.5,26.972-20.5
	C224.645,316.75,228.002,313.393,228.002,309.25z M248.5,380.249v10.252h-55.998V352.25h62.862
	C250.989,360.635,248.5,370.155,248.5,380.249z M192.502,405.501h54.979C244.193,417.31,233.343,426,220.501,426h-27.999V405.501z
	 M195.612,142.001h-10.61c-4.143,0-7.5,3.357-7.5,7.5v88.751c0,24.49,14.575,45.627,35.5,55.231v8.633
	c-18.24,1.737-34.669,9.745-47.125,21.834v-156.7c0-36.326,23.965-67.156,56.914-77.522
	C207.605,102.683,197.577,121.268,195.612,142.001z M157.002,380.25c0-19.391,8.747-36.77,22.491-48.427
	c-1.29,4.082-1.991,8.423-1.991,12.927v53.251V433.5v28.001h-20.5V380.25z M405.501,465.894V148.426c0-4.143-3.357-7.5-7.5-7.5
	s-7.5,3.357-7.5,7.5v313.075h-20.499v-81.252c0-20.856-10.567-39.288-26.626-50.232V167.25c0-47.715-34.903-87.424-80.517-94.956
	c-0.269-0.061-0.542-0.105-0.819-0.136c-4.862-0.76-9.842-1.157-14.914-1.157c-53.072,0-96.249,43.177-96.249,96.249v176.809
	c-5.657,10.838-8.875,23.142-8.875,36.191v81.251h-20.501V50.499h269v64.576c0,4.143,3.357,7.5,7.5,7.5s7.5-3.357,7.5-7.5V46.106
	l20.5-20.499v460.786L405.501,465.894z"/>
<path d="M220.877,237.405h8.499c4.143,0,7.5-3.357,7.5-7.5v-28.53h19.125c4.143,0,7.5-3.357,7.5-7.5s-3.357-7.5-7.5-7.5h-26.625
	c-4.143,0-7.5,3.357-7.5,7.5v28.53h-0.999c-4.143,0-7.5,3.357-7.5,7.5S216.734,237.405,220.877,237.405z"/>
<g>
</g>
<g>
</g>
<g>
</g>
<g>
</g>
<g>
</g>
<g>
</g>
<g>
</g>
<g>
</g>
<g>
</g>
<g>
</g>
<g>
</g>
<g>
</g>
<g>
</g>
<g>
</g>
<g>
</g>
</svg>
