<svg xmlns="http://www.w3.org/2000/svg" viewBox="0 0 512 512"><g id="filled_outlind" data-name="filled outlind"><polygon points="256 24 216 312 296 312 256 24" style="fill:#02a437"/><path d="M232,312l12.518-71.98A305.373,305.373,0,0,1,352,56h0l-26.328,52.657a305.351,305.351,0,0,0-28.86,91.266L280,312Z" style="fill:#029532"/><path d="M248,312l16-71.98C276.566,167.763,295.237,102.443,352,56h0l-34.328,52.657a305.351,305.351,0,0,0-28.86,91.266L272,312Z" style="fill:#02a437"/><path d="M272,312l-12.518-71.98A305.373,305.373,0,0,0,152,56h0l26.328,52.657a305.351,305.351,0,0,1,28.86,91.266L224,312Z" style="fill:#027e2a"/><path d="M248,312l-12.518-71.98C222.915,167.763,208.763,102.443,152,56h0l26.328,52.657a305.351,305.351,0,0,1,28.86,91.266L224,312Z" style="fill:#029532"/><path d="M336,488H176a569.062,569.062,0,0,1-24-163.522V312H360v12.478A569.062,569.062,0,0,1,336,488Z" style="fill:#d18d28"/><path d="M312,488H176a569.062,569.062,0,0,1-24-163.522V312H336v12.478A569.062,569.062,0,0,1,312,488Z" style="fill:#ea9d2d"/><path d="M216,344a8,8,0,0,1-8,8H152.67q-.39-8-.55-16H208A8,8,0,0,1,216,344Z" style="fill:#ea9d2d"/><path d="M192,312l-.879-3.957a471.2,471.2,0,0,0-49.293-128.794L104,112l60.958,52.83a471.242,471.242,0,0,1,98.41,118.657L280,312Z" style="fill:#027226"/><path d="M192,312l-.879-3.957a471.2,471.2,0,0,0-49.293-128.794L104,112l32,52.83c39.1,33.882,69.3,73.971,95.368,118.657L248,312Z" style="fill:#027e2a"/><path d="M312,312l.879-3.957a471.2,471.2,0,0,1,49.293-128.794L400,112l-60.958,52.83a471.242,471.242,0,0,0-98.41,118.657L224,312Z" style="fill:#026a23"/><path d="M288,312l.879-3.957a471.2,471.2,0,0,1,49.293-128.794L400,112l-60.958,52.83a471.242,471.242,0,0,0-98.41,118.657L224,312Z" style="fill:#027e2a"/><path d="M216,344a8,8,0,0,1-8,8H152.67q-.39-8-.55-16H208A8,8,0,0,1,216,344Z" style="fill:#d18d28"/><path d="M256,352H240a8,8,0,0,1,0-16h16a8,8,0,0,1,0,16Z" style="fill:#d18d28"/><path d="M405.059,105.8a8,8,0,0,0-10.3.151L333.8,158.784q-13.35,11.57-25.746,24.051a296.822,296.822,0,0,1,24.77-70.6l26.328-52.657a8,8,0,0,0-12.221-9.769,312.726,312.726,0,0,0-68.417,78.159L263.924,22.9a8,8,0,0,0-15.848,0L231.94,139.078a313.332,313.332,0,0,0-74.874-89.269,8,8,0,0,0-12.221,9.769l26.328,52.657a296.886,296.886,0,0,1,24.767,70.584q-12.415-12.468-25.743-24.035l-60.958-52.83a8,8,0,0,0-12.212,9.968l37.828,67.249A462.831,462.831,0,0,1,181.971,304H152a8,8,0,0,0-8,8v12.478A576.707,576.707,0,0,0,168.337,490.3,8,8,0,0,0,176,496H336a8,8,0,0,0,7.663-5.7A576.707,576.707,0,0,0,368,324.478V312a8,8,0,0,0-8-8H322.029a462.831,462.831,0,0,1,47.116-120.829l37.828-67.249A8,8,0,0,0,405.059,105.8Zm-86.543-.724A312.893,312.893,0,0,0,288.9,198.736l-.811,5.41q-11.549,13.106-22.127,27.018-2.367-11.889-5.642-23.5a296.13,296.13,0,0,1,64.1-114.386ZM256,82.152l9.522,68.562c.019.136.051.266.077.4a313.241,313.241,0,0,0-13.612,31.1q-3.422-9.111-7.387-17.98ZM215.912,204.146l-.812-5.41a312.893,312.893,0,0,0-29.616-93.657L179.64,93.392a297.455,297.455,0,0,1,71.96,148l1.355,7.791c-.32.465-.637.931-.955,1.4a479.2,479.2,0,0,0-36.088-46.425ZM148.8,175.327l-15.271-27.149,26.189,22.7a463.027,463.027,0,0,1,82.756,94.2q-4.488,7.11-8.752,14.378L219.405,304H198.4A478.846,478.846,0,0,0,148.8,175.327ZM352,324.478A560.675,560.675,0,0,1,330.015,480H181.985a560.66,560.66,0,0,1-21.3-128H208a8,8,0,0,0,0-16H160.13c-.079-3.839-.13-7.679-.13-11.522V320H352Zm3.2-149.151A478.84,478.84,0,0,0,305.589,304H237.928l9.614-16.481q9.54-16.355,20.333-31.811c.056-.076.107-.155.16-.233a462.192,462.192,0,0,1,76.246-84.6l26.19-22.7Z"/><path d="M256,336H240a8,8,0,0,0,0,16h16a8,8,0,0,0,0-16Z"/></g></svg>